<svg width="311" height="70" viewBox="0 0 311 70" fill="none" xmlns="http://www.w3.org/2000/svg">
<path d="M38.5611 3.5147C38.5611 5.4551 36.9856 7.0294 35.0421 7.0294C33.0987 7.0294 31.5232 5.4551 31.5232 3.5147C31.5225 1.5736 33.098 0 35.0414 0C36.9842 0 38.5611 1.5736 38.5611 3.5147Z" fill="#0AF886"/>
<path d="M37.6198 13.3735C37.6198 14.7938 36.4663 15.9482 35.0414 15.9482C33.6194 15.9482 32.4637 14.7945 32.4637 13.3735C32.4637 11.9518 33.6187 10.799 35.0414 10.799C36.4663 10.7997 37.6198 11.9525 37.6198 13.3735Z" fill="#0AF886"/>
<path d="M36.6484 22.0003C36.6484 22.8858 35.9294 23.6047 35.0414 23.6047C34.1548 23.6047 33.4351 22.8865 33.4351 22.0003C33.4351 21.1141 34.1548 20.3959 35.0414 20.3959C35.9294 20.3966 36.6484 21.1148 36.6484 22.0003Z" fill="#0AF886"/>
<path d="M36.0079 29.5995C36.0079 30.1322 35.5762 30.5641 35.0414 30.5641C34.5088 30.5641 34.0757 30.1322 34.0757 29.5995C34.0757 29.0668 34.5088 28.6349 35.0414 28.6349C35.5762 28.6342 36.0079 29.0661 36.0079 29.5995Z" fill="#0AF886"/>
<path d="M38.5611 66.4853C38.5611 64.5456 36.9856 62.9706 35.0421 62.9706C33.0987 62.9706 31.5232 64.5449 31.5232 66.4853C31.5232 68.4264 33.0987 70 35.0421 70C36.9856 70 38.5611 68.4264 38.5611 66.4853Z" fill="#0AF886"/>
<path d="M37.6198 56.6265C37.6198 55.2069 36.4663 54.0519 35.0414 54.0519C33.6194 54.0519 32.4637 55.2055 32.4637 56.6265C32.4637 58.0482 33.6187 59.2018 35.0414 59.2018C36.4663 59.2004 37.6198 58.0482 37.6198 56.6265Z" fill="#0AF886"/>
<path d="M36.6484 47.999C36.6484 47.1128 35.9294 46.3953 35.0414 46.3953C34.1548 46.3953 33.4351 47.1128 33.4351 47.999C33.4351 48.8852 34.1548 49.6027 35.0414 49.6027C35.9294 49.6027 36.6484 48.8852 36.6484 47.999Z" fill="#0AF886"/>
<path d="M36.0079 40.4005C36.0079 39.8678 35.5762 39.4366 35.0414 39.4366C34.5088 39.4366 34.0757 39.8678 34.0757 40.4005C34.0757 40.9339 34.5088 41.3658 35.0414 41.3658C35.5762 41.3658 36.0079 40.9339 36.0079 40.4005Z" fill="#0AF886"/>
<path d="M66.5653 38.5148C64.6233 38.5148 63.0471 36.9412 63.0471 35.0001C63.0471 33.059 64.6219 31.4854 66.5653 31.4854C68.5074 31.4854 70.0843 33.059 70.0843 35.0001C70.0843 36.9412 68.5081 38.5148 66.5653 38.5148Z" fill="#0AF886"/>
<path d="M56.6954 37.576C55.2727 37.576 54.1163 36.4238 54.1163 35.0007C54.1163 33.579 55.2713 32.4247 56.6954 32.4247C58.1167 32.4247 59.2731 33.5783 59.2731 35.0007C59.2717 36.4238 58.1174 37.576 56.6954 37.576Z" fill="#0AF886"/>
<path d="M48.0569 36.6051C47.1696 36.6051 46.4498 35.8876 46.4498 35.0007C46.4498 34.1152 47.1696 33.3949 48.0569 33.3949C48.9448 33.3949 49.6625 34.1152 49.6625 35.0007C49.6625 35.8876 48.9448 36.6051 48.0569 36.6051Z" fill="#0AF886"/>
<path d="M40.4499 35.9653C39.9173 35.9653 39.4841 35.5327 39.4841 35C39.4841 34.4673 39.9173 34.0361 40.4499 34.0361C40.9832 34.0361 41.4171 34.4673 41.4171 35C41.4171 35.5327 40.9832 35.9653 40.4499 35.9653Z" fill="#0AF886"/>
<path d="M3.51893 38.5148C5.46167 38.5148 7.03787 36.9412 7.03787 35.0001C7.03787 33.059 5.46167 31.4854 3.51893 31.4854C1.5755 31.4854 0 33.059 0 35.0001C0 36.9412 1.5755 38.5148 3.51893 38.5148Z" fill="#0AF886"/>
<path d="M13.3903 37.576C14.813 37.576 15.968 36.4238 15.968 35.0007C15.968 33.579 14.813 32.4247 13.3903 32.4247C11.9655 32.4247 10.8119 33.5783 10.8119 35.0007C10.8126 36.4238 11.9655 37.576 13.3903 37.576Z" fill="#0AF886"/>
<path d="M22.0282 36.6051C22.914 36.6051 23.6331 35.8876 23.6331 35.0007C23.6331 34.1152 22.914 33.3949 22.0282 33.3949C21.1395 33.3949 20.4211 34.1152 20.4211 35.0007C20.4211 35.8876 21.1395 36.6051 22.0282 36.6051Z" fill="#0AF886"/>
<path d="M29.6352 35.9653C30.1685 35.9653 30.601 35.5327 30.601 35C30.601 34.4673 30.1685 34.0361 29.6352 34.0361C29.1019 34.0361 28.6694 34.4673 28.6694 35C28.6694 35.5327 29.1019 35.9653 29.6352 35.9653Z" fill="#0AF886"/>
<path d="M15.2399 10.2508C16.6135 11.6221 16.6135 13.8474 15.2385 15.2201C13.8648 16.5935 11.6368 16.5935 10.2632 15.2215C8.88953 13.8488 8.88813 11.6235 10.2632 10.2508C11.6382 8.8781 13.8662 8.8795 15.2399 10.2508Z" fill="#0AF886"/>
<path d="M21.5544 17.8863C22.5608 18.8908 22.5622 20.5218 21.5544 21.5277C20.548 22.5336 18.9136 22.5336 17.9093 21.5277C16.9008 20.5232 16.9029 18.8922 17.9093 17.8863C18.9164 16.8811 20.5466 16.8811 21.5544 17.8863Z" fill="#0AF886"/>
<path d="M26.9748 24.6729C27.6013 25.2994 27.6013 26.3151 26.9748 26.9423C26.3475 27.5688 25.3292 27.5695 24.7027 26.9423C24.0747 26.3151 24.0747 25.2987 24.7027 24.6729C25.3313 24.0464 26.3482 24.0464 26.9748 24.6729Z" fill="#0AF886"/>
<path d="M31.9017 30.4983C32.278 30.8742 32.2794 31.4867 31.9017 31.8633C31.5253 32.2392 30.9121 32.2392 30.5343 31.8633C30.1601 31.486 30.1601 30.8742 30.5343 30.4983C30.9121 30.121 31.5246 30.1224 31.9017 30.4983Z" fill="#0AF886"/>
<path d="M59.8197 54.7778C58.4468 53.4065 56.2181 53.4051 54.8438 54.7778C53.4694 56.1505 53.4694 58.3765 54.8438 59.7492C56.2167 61.1205 58.4454 61.1219 59.8197 59.7492C61.1948 58.3765 61.1948 56.1498 59.8197 54.7778Z" fill="#0AF886"/>
<path d="M52.1743 48.4709C51.1679 47.4657 49.5363 47.4643 48.5299 48.4709C47.5228 49.4761 47.5221 51.1078 48.5299 52.1116C49.537 53.1175 51.17 53.1175 52.1743 52.1116C53.1828 51.1071 53.1828 49.4761 52.1743 48.4709Z" fill="#0AF886"/>
<path d="M45.3809 43.057C44.7551 42.4305 43.7375 42.4305 43.1102 43.057C42.4823 43.6842 42.4809 44.7006 43.1088 45.3264C43.7361 45.9536 44.7544 45.9529 45.3809 45.3264C46.0075 44.6985 46.0075 43.6828 45.3809 43.057Z" fill="#0AF886"/>
<path d="M39.5486 38.1359C39.1723 37.76 38.5618 37.76 38.1813 38.1359C37.8077 38.5118 37.8077 39.1229 38.1813 39.5002C38.5604 39.8754 39.1723 39.8754 39.5486 39.5002C39.9257 39.1236 39.9257 38.5139 39.5486 38.1359Z" fill="#0AF886"/>
<path d="M59.8197 15.2209C58.4468 16.5922 56.2188 16.5936 54.8438 15.2209C53.4694 13.8482 53.4694 11.6229 54.8438 10.2495C56.2167 8.87816 58.4454 8.87676 59.8197 10.2495C61.1948 11.6243 61.1948 13.8496 59.8197 15.2209Z" fill="#0AF886"/>
<path d="M52.1743 21.5277C51.1692 22.5322 49.5377 22.5336 48.5299 21.5277C47.5228 20.5232 47.5228 18.8908 48.5299 17.8863C49.537 16.8811 51.1713 16.8811 52.1743 17.8863C53.1849 18.8922 53.1828 20.5232 52.1743 21.5277Z" fill="#0AF886"/>
<path d="M45.381 26.9416C44.7552 27.5681 43.7376 27.5695 43.1089 26.9416C42.4823 26.3158 42.4823 25.2994 43.1103 24.6715C43.7362 24.045 44.7559 24.0464 45.381 24.6715C46.0076 25.3008 46.0076 26.3151 45.381 26.9416Z" fill="#0AF886"/>
<path d="M39.5485 31.8626C39.1722 32.2385 38.5617 32.2399 38.184 31.8626C37.8076 31.4853 37.8076 30.8735 38.1812 30.4976C38.5603 30.1217 39.1722 30.1217 39.5485 30.4976C39.9277 30.8749 39.9256 31.486 39.5485 31.8626Z" fill="#0AF886"/>
<path d="M15.2413 59.7478C16.6135 58.3765 16.6156 56.1505 15.2413 54.7764C13.8662 53.4037 11.6375 53.4051 10.2632 54.7764C8.88813 56.1505 8.88953 58.3751 10.2632 59.7478C11.6382 61.1198 13.8662 61.1198 15.2413 59.7478Z" fill="#0AF886"/>
<path d="M21.5558 52.1115C22.5622 51.1056 22.5629 49.4753 21.5544 48.4694C20.5494 47.4656 18.915 47.4656 17.9114 48.4694C16.9022 49.476 16.9036 51.107 17.9093 52.1115C18.9178 53.1188 20.5466 53.1188 21.5558 52.1115Z" fill="#0AF886"/>
<path d="M26.9755 45.3257C27.6014 44.6985 27.6035 43.6842 26.9748 43.0563C26.3475 42.4305 25.3292 42.4298 24.7034 43.0563C24.0747 43.6835 24.0768 44.7006 24.7034 45.3257C25.3327 45.9522 26.3482 45.9522 26.9755 45.3257Z" fill="#0AF886"/>
<path d="M31.9017 39.501C32.2794 39.1251 32.2801 38.514 31.9017 38.1353C31.5253 37.7594 30.9128 37.7594 30.5343 38.1353C30.1601 38.5126 30.1601 39.1237 30.5364 39.501C30.9128 39.8769 31.5246 39.8769 31.9017 39.501Z" fill="#0AF886"/>
<path d="M47.1759 10.5392C46.8164 11.3904 45.8359 11.7901 44.9844 11.4303C44.1307 11.0719 43.7292 10.0905 44.0901 9.23928C44.4496 8.38808 45.4329 7.98838 46.2844 8.34678C47.1353 8.70658 47.5361 9.68798 47.1759 10.5392Z" fill="#0AF886"/>
<path d="M43.4474 18.2287C43.186 18.8517 42.4662 19.1457 41.8411 18.8832C41.2166 18.62 40.9237 17.8997 41.1851 17.2781C41.4479 16.6537 42.1698 16.3611 42.7921 16.6243C43.4201 16.8861 43.7116 17.6043 43.4474 18.2287Z" fill="#0AF886"/>
<path d="M40.1198 24.9298C39.9565 25.3183 39.508 25.5003 39.1183 25.3365C38.7293 25.1734 38.5464 24.7247 38.7104 24.3362C38.873 23.9477 39.3223 23.7657 39.7119 23.9295C40.103 24.0926 40.2838 24.5399 40.1198 24.9298Z" fill="#0AF886"/>
<path d="M25.995 60.7608C26.3538 59.9103 25.953 58.9289 25.1007 58.5691C24.2478 58.2114 23.2673 58.6118 22.9085 59.4616C22.5476 60.3142 22.9484 61.2921 23.7993 61.6526C24.6522 62.0117 25.6355 61.6113 25.995 60.7608Z" fill="#0AF886"/>
<path d="M28.8979 52.7226C29.1608 52.1003 28.8671 51.3814 28.2426 51.1175C27.6175 50.855 26.897 51.1476 26.6349 51.7727C26.3714 52.3964 26.665 53.1139 27.2895 53.3764C27.9168 53.6396 28.6344 53.3463 28.8979 52.7226Z" fill="#0AF886"/>
<path d="M31.374 45.6638C31.5373 45.2753 31.3557 44.8273 30.9661 44.6628C30.5764 44.4983 30.1286 44.681 29.9639 45.0695C29.7992 45.4587 29.9821 45.906 30.3718 46.0712C30.7614 46.2357 31.21 46.0523 31.374 45.6638Z" fill="#0AF886"/>
<path d="M59.5317 47.1212C58.6802 46.7614 58.28 45.7814 58.6402 44.9309C58.9998 44.0769 59.981 43.6786 60.8332 44.0384C61.6868 44.3968 62.0849 45.3782 61.7247 46.2287C61.3665 47.0799 60.3846 47.4796 59.5317 47.1212Z" fill="#0AF886"/>
<path d="M51.8358 43.3958C51.2092 43.1347 50.9163 42.4158 51.1784 41.7907C51.4426 41.1684 52.1638 40.8744 52.7882 41.1369C53.4127 41.3994 53.7063 42.1183 53.4435 42.742C53.1793 43.3671 52.4595 43.6583 51.8358 43.3958Z" fill="#0AF886"/>
<path d="M45.1265 40.0722C44.7355 39.9077 44.5547 39.4604 44.7187 39.0712C44.8819 38.6813 45.3319 38.5 45.7195 38.6638C46.1084 38.8255 46.2906 39.2763 46.1273 39.6648C45.9626 40.0547 45.5134 40.2353 45.1265 40.0722Z" fill="#0AF886"/>
<path d="M9.25184 25.963C10.1034 26.3214 11.0845 25.9217 11.4448 25.0705C11.8036 24.22 11.4041 23.2379 10.5519 22.8788C9.69898 22.5204 8.7178 22.9187 8.35897 23.7706C7.99873 24.6225 8.39892 25.6046 9.25184 25.963Z" fill="#0AF886"/>
<path d="M17.2983 28.8637C17.9227 29.1263 18.6418 28.8343 18.9046 28.2106C19.1674 27.5869 18.8744 26.868 18.2486 26.6055C17.6241 26.343 16.9044 26.6349 16.643 27.2593C16.3787 27.8837 16.6717 28.6012 17.2983 28.8637Z" fill="#0AF886"/>
<path d="M24.3655 31.3362C24.7537 31.5 25.2016 31.3187 25.3656 30.9288C25.531 30.541 25.3481 30.0923 24.9584 29.9285C24.5708 29.764 24.123 29.9467 23.9583 30.3366C23.7936 30.7258 23.9772 31.1731 24.3655 31.3362Z" fill="#0AF886"/>
<path d="M26.3055 9.13219C26.6524 9.98829 26.241 10.9634 25.3853 11.312C24.5296 11.6613 23.5512 11.2497 23.2043 10.3936C22.8553 9.53959 23.2652 8.56239 24.1238 8.21309C24.9802 7.86519 25.9565 8.27679 26.3055 9.13219Z" fill="#0AF886"/>
<path d="M29.1116 17.2039C29.3674 17.829 29.0668 18.5465 28.4388 18.8013C27.8102 19.0561 27.0939 18.7551 26.8388 18.1286C26.5837 17.5014 26.8857 16.7867 27.5123 16.5312C28.1417 16.275 28.8565 16.576 29.1116 17.2039Z" fill="#0AF886"/>
<path d="M31.5029 24.2922C31.6606 24.6842 31.4735 25.1287 31.0824 25.2876C30.6899 25.4472 30.2442 25.2596 30.0851 24.8683C29.926 24.4777 30.1132 24.0332 30.5049 23.8736C30.8974 23.714 31.3431 23.9016 31.5029 24.2922Z" fill="#0AF886"/>
<path d="M46.8815 59.605C46.5339 58.7489 45.5562 58.3373 44.6998 58.6859C43.8427 59.0345 43.4299 60.0117 43.7796 60.865C44.1272 61.7211 45.1056 62.1327 45.9627 61.7841C46.8184 61.4376 47.2291 60.4611 46.8815 59.605Z" fill="#0AF886"/>
<path d="M43.2449 51.8728C42.9891 51.2456 42.2735 50.9446 41.6449 51.1987C41.0183 51.4542 40.7162 52.171 40.9714 52.7968C41.2265 53.424 41.9455 53.725 42.5714 53.4695C43.2007 53.214 43.5 52.4993 43.2449 51.8728Z" fill="#0AF886"/>
<path d="M39.9985 45.1311C39.838 44.7412 39.3929 44.5529 39.0005 44.7125C38.6101 44.8714 38.4216 45.3166 38.5821 45.7072C38.7405 46.0978 39.1848 46.2861 39.5766 46.1265C39.9704 45.9676 40.1583 45.5224 39.9985 45.1311Z" fill="#0AF886"/>
<path d="M60.9411 26.2738C60.0833 26.6224 59.1077 26.2115 58.758 25.3547C58.4089 24.4993 58.8217 23.5221 59.6782 23.1742C60.5339 22.8256 61.5123 23.2379 61.8599 24.0933C62.2096 24.9494 61.7968 25.9259 60.9411 26.2738Z" fill="#0AF886"/>
<path d="M52.8619 29.0758C52.2353 29.332 51.5183 29.0318 51.2618 28.4039C51.0074 27.7774 51.3088 27.0612 51.9353 26.8064C52.5626 26.5516 53.281 26.8534 53.534 27.4792C53.7905 28.1071 53.487 28.821 52.8619 29.0758Z" fill="#0AF886"/>
<path d="M45.763 31.465C45.3712 31.6239 44.9255 31.437 44.7664 31.0457C44.6059 30.6551 44.7944 30.2099 45.1869 30.051C45.5779 29.8907 46.0237 30.0783 46.1835 30.4689C46.3412 30.8616 46.154 31.3047 45.763 31.465Z" fill="#0AF886"/>
<path d="M10.4082 46.8251C11.2653 46.4765 11.6767 45.5007 11.3284 44.6446C10.9794 43.7885 10.001 43.3783 9.14525 43.7255C8.28672 44.0748 7.87602 45.052 8.22504 45.906C8.57336 46.7621 9.55034 47.1737 10.4082 46.8251Z" fill="#0AF886"/>
<path d="M18.1504 43.1922C18.777 42.9381 19.0804 42.2227 18.8246 41.5955C18.5695 40.9683 17.8498 40.6673 17.226 40.9228C16.5973 41.1776 16.2967 41.8951 16.5511 42.5209C16.8069 43.1474 17.5218 43.4463 18.1504 43.1922Z" fill="#0AF886"/>
<path d="M24.9003 39.9491C25.2899 39.7888 25.4799 39.3464 25.3187 38.9523C25.1589 38.5624 24.7138 38.3755 24.3228 38.5337C23.9303 38.694 23.7439 39.1371 23.903 39.5284C24.0628 39.9211 24.5078 40.108 24.9003 39.9491Z" fill="#0AF886"/>
<path d="M90.2043 30.5175C89.8776 30.6978 89.5436 31.0007 89.5436 31.8781C89.5436 32.562 89.765 32.9358 90.3333 33.2109C90.9082 33.489 91.5493 33.5094 91.5816 33.5102L104.36 33.5601C106.581 33.5601 109.895 34.9298 109.895 38.7035C109.895 42.4772 106.815 43.847 104.745 43.847H86.0276V40.3355H104.729C104.882 40.3302 105.34 40.2725 105.717 40.064C106.044 39.8834 106.378 39.5806 106.378 38.7034C106.378 38.0195 106.157 37.6457 105.588 37.3706C105.015 37.0932 104.375 37.0723 104.339 37.0713L91.5685 37.0146V37.0214C89.3409 37.0214 86.0271 35.6516 86.0271 31.8779C86.0271 28.1043 89.1066 26.7345 91.1767 26.7345H109.894V30.246H91.1932C91.04 30.2513 90.5819 30.309 90.2043 30.5175ZM138.767 30.4376L118.416 30.4376V33.7077L131.99 33.7582L131.977 37.2698L118.416 37.2193V40.4773H138.767V43.9888H114.9V26.9272H138.767L138.767 30.4376ZM155.706 35.0917L167.639 27.1455V43.9723H164.123V33.7071L155.706 39.3118L147.288 33.7071V43.9723H143.772V27.1455L155.706 35.0917ZM184.873 26.0399L198.615 44.2726H194.196L190.354 39.1911H179.392L175.606 44.2726H171.237L184.873 26.0399ZM182.029 35.6792H187.717L184.873 31.8917L182.029 35.6792ZM222.586 26.9104H226.101V43.7372L205.75 33.1206V43.9729H202.235V27.1461L222.586 37.7627L222.586 26.9104ZM231.107 26.7339H254.974V30.2454H244.798V43.8462H241.283V30.2454H231.108L231.107 26.7339ZM283.876 30.4376L263.525 30.4376V33.7077L277.099 33.7582L277.086 37.2698L263.525 37.2193V40.4773H283.876V43.9888H260.009V26.9272H283.876L283.876 30.4376ZM310.237 40.4571L310.297 43.9334L308.557 43.9634C308.534 43.9637 307.018 43.989 304.053 43.989C302.55 43.989 300.676 43.9823 298.436 43.9629C294.822 43.9314 291.933 43.1521 289.848 41.6461C287.776 40.1493 286.635 37.9723 286.635 35.5158C286.635 33.0609 287.786 30.8788 289.876 29.3723C291.947 27.8789 294.91 27.0823 298.445 27.0686C305.095 27.043 308.506 27.069 308.54 27.0692L310.281 27.0829L310.253 30.5598L308.513 30.5461C308.479 30.5458 305.085 30.5199 298.458 30.5455C293.313 30.5655 290.116 32.4699 290.116 35.5161C290.116 36.8651 290.713 37.98 291.888 38.8291C293.355 39.8886 295.63 40.4618 298.466 40.4865C305.077 40.5442 308.463 40.4878 308.496 40.4872L310.237 40.4571Z" fill="white"/>
</svg>
